<svg id="Capa_1" enable-background="new 0 0 512.024 512.024" height="512" viewBox="0 0 512.024 512.024" width="512" xmlns="http://www.w3.org/2000/svg"><g id="XMLID_825_"><path id="XMLID_826_" d="m208.802 173.078c-2.066-.083-4.147-.107-6.242-.068-56.476 1.028-102.491 47.02-103.53 103.496-.273 14.825 2.516 28.966 7.773 41.836 1.774 4.342 8.215 3.012 8.209-1.678 0-.068 0-.136 0-.205 0-62.245 39.632-115.231 95.037-135.107 4.399-1.579 3.423-8.086-1.247-8.274z"/><path id="XMLID_844_" d="m437.41 179.906c-22.684-32.042-57.673-52.547-98.522-57.739-19.637-2.497-38.608-1.312-56.599 3.484 4.832-25.654 16.599-49.221 34.482-68.831 8.367-9.174 11.05-21.69 7.176-33.479-3.87-11.778-13.441-20.255-25.604-22.676-12.592-2.505-25.32 2.163-33.214 12.187-13.175 16.73-22.725 35.437-28.412 55.38-6.128-9.439-14.145-17.848-23.766-24.543-26.671-18.558-61.392-21.073-88.456-6.406-2.784 1.508-4.688 4.246-5.136 7.38-4.342 30.446 10.051 62.096 36.671 80.662-33.474 8.131-61.971 27.111-81.419 54.582-24.085 34.02-33.393 78.94-26.916 129.904 13.208 103.922 90.812 212.178 174.895 201.48 7.394-.94 14.737-2.825 21.826-5.604 7.477-2.93 15.711-2.93 23.187 0 7.089 2.778 14.433 4.664 21.827 5.604 3.875.492 7.722.732 11.563.731 79.522-.012 150.731-103.079 163.331-202.212 6.479-50.963-2.828-95.884-26.914-129.904zm-156.567-154.679c3.214-4.08 8.425-5.974 13.597-4.945 4.992.994 8.92 4.472 10.508 9.304 1.591 4.844.488 9.987-2.953 13.76-22.769 24.966-36.848 55.562-40.945 88.819-3.038.474-6.121.518-9.167.13-.885-6.437-1.338-12.973-1.338-19.501 0-32.118 10.477-62.397 30.298-87.567zm-142.178 27.392c19.732-8.479 43.858-5.738 62.864 7.487 15.242 10.606 25.3 26.645 28.123 43.643l-30.985-21.561c-4.534-3.153-10.766-2.037-13.92 2.497s-2.037 10.766 2.497 13.92l30.985 21.561c-16.92 3.26-35.454-.598-50.697-11.204-19.006-13.225-29.962-34.895-28.867-56.343zm305.82 254.67c-11.275 88.708-75.197 184.747-143.442 184.735-3.019 0-6.058-.188-9.089-.574-5.759-.732-11.496-2.208-17.051-4.385-6.091-2.387-12.491-3.581-18.891-3.581s-12.8 1.193-18.891 3.581c-5.555 2.177-11.292 3.652-17.05 4.384-71.56 9.11-140.758-91.529-152.532-184.161-5.835-45.911 2.255-85.963 23.398-115.827 19.408-27.415 49.496-44.978 84.721-49.455 21.627-2.748 42.242-.401 61.267 6.978 12.309 4.775 25.866 4.774 38.175 0 19.025-7.379 39.638-9.727 61.267-6.978 35.224 4.477 65.312 22.04 84.72 49.454 21.143 29.866 29.233 69.918 23.398 115.829z"/></g></svg>